<svg width="142" height="41" fill="none" xmlns="http://www.w3.org/2000/svg"><path d="M23.887 18.382c2.205 0 3.992.76 5.36 2.281 1.381 1.52 2.072 3.472 2.072 5.854V39.88h-4.314V27.582c0-1.698-.355-3.01-1.065-3.935-.71-.925-1.717-1.387-3.022-1.387-1.407 0-2.585.576-3.535 1.73-.938 1.152-1.407 2.616-1.407 4.39v11.5h-4.22V27.581c0-1.698-.354-3.01-1.064-3.935-.697-.925-1.704-1.387-3.022-1.387-1.407 0-2.585.576-3.535 1.73-.95 1.152-1.426 2.616-1.426 4.39v11.5H.395V18.856h3.06l.741 2.719a8.39 8.39 0 012.908-2.338 8.088 8.088 0 013.63-.856c1.407 0 2.655.33 3.745.989a6.669 6.669 0 012.566 2.699 8.415 8.415 0 012.965-2.7 7.95 7.95 0 013.877-.988zm33.282 11.043c0 .406-.032.875-.095 1.407H40.005c.267 1.698.976 3.041 2.13 4.03 1.152.988 2.59 1.482 4.314 1.482 1.242 0 2.35-.272 3.326-.817a5.94 5.94 0 002.319-2.262h4.562c-.837 2.217-2.16 3.96-3.973 5.227-1.812 1.267-3.89 1.9-6.234 1.9-3.067 0-5.633-1.051-7.698-3.155-2.066-2.116-3.098-4.739-3.098-7.869 0-2.065.469-3.94 1.406-5.626a10.2 10.2 0 013.878-3.953c1.647-.963 3.484-1.445 5.512-1.445 2.09 0 3.96.5 5.607 1.502a9.93 9.93 0 013.782 4.01c.887 1.673 1.33 3.53 1.33 5.57zm-10.72-7.184c-1.61 0-2.978.456-4.106 1.368-1.128.913-1.869 2.154-2.224 3.726h12.716c-.393-1.597-1.16-2.845-2.3-3.745-1.127-.9-2.49-1.35-4.086-1.35zm24.405 13.723h2.395v3.915h-3.212c-2.307 0-4.125-.665-5.455-1.995-1.33-1.344-1.996-3.175-1.996-5.493v-9.827h-3.764v-.837l7.318-7.773h.741v4.904h6.254v3.706h-6.216v9.484c0 1.255.336 2.224 1.008 2.908.684.672 1.66 1.008 2.927 1.008zm26.344-6.539c0 .406-.032.875-.095 1.407H80.034c.266 1.698.976 3.041 2.13 4.03 1.152.988 2.59 1.482 4.314 1.482 1.242 0 2.35-.272 3.326-.817a5.94 5.94 0 002.319-2.262h4.562c-.837 2.217-2.16 3.96-3.973 5.227-1.812 1.267-3.89 1.9-6.234 1.9-3.067 0-5.633-1.051-7.698-3.155-2.066-2.116-3.098-4.739-3.098-7.869 0-2.065.469-3.94 1.406-5.626a10.2 10.2 0 013.878-3.953c1.647-.963 3.484-1.445 5.512-1.445 2.09 0 3.96.5 5.607 1.502a9.93 9.93 0 013.782 4.01c.887 1.673 1.33 3.53 1.33 5.57zm-10.72-7.184c-1.61 0-2.978.456-4.106 1.368-1.127.913-1.869 2.154-2.224 3.726h12.716c-.393-1.597-1.16-2.845-2.3-3.745-1.127-.9-2.49-1.35-4.086-1.35zm30.734 16.726c-1.71.95-3.624 1.425-5.74 1.425s-4.029-.475-5.74-1.425a10.594 10.594 0 01-4.03-3.953c-.975-1.686-1.463-3.568-1.463-5.646 0-2.09.488-3.972 1.463-5.645a10.416 10.416 0 014.03-3.953c1.711-.95 3.624-1.426 5.74-1.426s4.03.475 5.74 1.426a10.416 10.416 0 014.03 3.953c.975 1.686 1.463 3.567 1.463 5.645 0 2.079-.488 3.96-1.463 5.646a10.594 10.594 0 01-4.03 3.953zm-10.663-4.638c1.293 1.293 2.934 1.939 4.923 1.939 1.99 0 3.624-.646 4.904-1.939 1.292-1.292 1.939-2.946 1.939-4.96 0-2.015-.647-3.669-1.939-4.962-1.28-1.292-2.914-1.938-4.904-1.938-1.989 0-3.63.646-4.923 1.938-1.28 1.293-1.919 2.947-1.919 4.961 0 2.015.639 3.669 1.919 4.961z" fill="#2B2B2B"/><path fill-rule="evenodd" clip-rule="evenodd" d="M43.44 12.514C46.099 8.403 54.293.407 66.47.407c12.178 0 20.372 7.996 23.03 12.107l-3.817 2.469c-2.113-3.268-9.048-10.03-19.213-10.03-10.164 0-17.1 6.762-19.212 10.03l-3.818-2.47z" fill="#0079B7"/><circle cx="131.381" cy="17.555" r="10.21" fill="#FFC823"/><path d="M127.95 20.878c-.766 0-1.385-.224-1.856-.673-.469-.448-.703-1.04-.703-1.773v-3.139h1.469v2.972c0 .386.096.69.29.909.193.216.46.324.8.324.341 0 .606-.11.796-.33.19-.219.285-.52.285-.903v-2.972h1.469v3.139c0 .734-.233 1.325-.698 1.773-.465.449-1.082.673-1.852.673zm8.316-5.595h1.101v5.433h-1.155l-.127-.486a2.586 2.586 0 01-1.759.648 2.89 2.89 0 01-1.459-.373 2.664 2.664 0 01-1.021-1.032 2.979 2.979 0 01-.369-1.473c0-.537.123-1.024.369-1.46a2.63 2.63 0 011.021-1.026 2.89 2.89 0 011.459-.373c.691 0 1.285.22 1.783.663l.157-.52zm-2.883 3.783c.282.281.635.422 1.061.422.426 0 .778-.14 1.056-.422.282-.282.422-.637.422-1.066 0-.43-.14-.785-.422-1.066-.278-.282-.63-.423-1.056-.423a1.43 1.43 0 00-1.061.428c-.278.281-.418.635-.418 1.06 0 .426.14.782.418 1.067z" fill="#fff"/></svg>
